{
    "asset" : {
        "generator" : "Khronos glTF Blender I/O v1.8.19",
        "version" : "2.0"
    },
    "scene" : 0,
    "scenes" : [
        {
            "name" : "Scene",
            "nodes" : [
                0,
                1,
                2
            ]
        }
    ],
    "nodes" : [
        {
            "mesh" : 0,
            "name" : "420px-Simple_door_inside_the_BCR_Headquarters_Building,_in_Buch",
            "rotation" : [
                0.5,
                0.5,
                -0.5,
                0.4999999701976776
            ]
        },
        {
            "mesh" : 1,
            "name" : "Plane",
            "rotation" : [
                0.5,
                -0.5,
                0.5,
                0.4999999701976776
            ],
            "translation" : [
                0,
                -0.06330037862062454,
                0
            ]
        },
        {
            "mesh" : 2,
            "name" : "Sphere",
            "scale" : [
                -0.038820914924144745,
                -0.038820914924144745,
                -0.038820914924144745
            ],
            "translation" : [
                0.046335816383361816,
                -0.05749328061938286,
                -0.3292127251625061
            ]
        }
    ],
    "materials" : [
        {
            "alphaMode" : "BLEND",
            "doubleSided" : true,
            "name" : "420px-Simple_door_inside_the_BCR_Headquarters_Building,_in_Buch",
            "pbrMetallicRoughness" : {
                "baseColorTexture" : {
                    "index" : 0
                },
                "metallicFactor" : 0,
                "roughnessFactor" : 0.5
            }
        }
    ],
    "meshes" : [
        {
            "name" : "420px-Simple_door_inside_the_BCR_Headquarters_Building,_in_Buch",
            "primitives" : [
                {
                    "attributes" : {
                        "POSITION" : 0,
                        "NORMAL" : 1,
                        "TEXCOORD_0" : 2
                    },
                    "indices" : 3,
                    "material" : 0
                }
            ]
        },
        {
            "name" : "Plane",
            "primitives" : [
                {
                    "attributes" : {
                        "POSITION" : 4,
                        "NORMAL" : 5,
                        "TEXCOORD_0" : 6
                    },
                    "indices" : 7
                }
            ]
        },
        {
            "name" : "Sphere",
            "primitives" : [
                {
                    "attributes" : {
                        "POSITION" : 8,
                        "NORMAL" : 9,
                        "TEXCOORD_0" : 10
                    },
                    "indices" : 11
                }
            ]
        }
    ],
    "textures" : [
        {
            "sampler" : 0,
            "source" : 0
        }
    ],
    "images" : [
        {
            "bufferView" : 4,
            "mimeType" : "image/png",
            "name" : "420px-Simple_door_inside_the_BCR_Headquarters_Building,_in_Buch"
        }
    ],
    "accessors" : [
        {
            "bufferView" : 0,
            "componentType" : 5126,
            "count" : 4,
            "max" : [
                0.7747913599014282,
                0,
                1.1050000190734863
            ],
            "min" : [
                -0.7747913599014282,
                0,
                -1.1050000190734863
            ],
            "type" : "VEC3"
        },
        {
            "bufferView" : 1,
            "componentType" : 5126,
            "count" : 4,
            "type" : "VEC3"
        },
        {
            "bufferView" : 2,
            "componentType" : 5126,
            "count" : 4,
            "type" : "VEC2"
        },
        {
            "bufferView" : 3,
            "componentType" : 5123,
            "count" : 6,
            "type" : "SCALAR"
        },
        {
            "bufferView" : 5,
            "componentType" : 5126,
            "count" : 5176,
            "max" : [
                0.4128795266151428,
                0.0557398647069931,
                0.8948116302490234
            ],
            "min" : [
                -0.3606661558151245,
                -0.017704639583826065,
                -1.0254428386688232
            ],
            "type" : "VEC3"
        },
        {
            "bufferView" : 6,
            "componentType" : 5126,
            "count" : 5176,
            "type" : "VEC3"
        },
        {
            "bufferView" : 7,
            "componentType" : 5126,
            "count" : 5176,
            "type" : "VEC2"
        },
        {
            "bufferView" : 8,
            "componentType" : 5123,
            "count" : 8112,
            "type" : "SCALAR"
        },
        {
            "bufferView" : 9,
            "componentType" : 5126,
            "count" : 1796,
            "max" : [
                4.533240795135498,
                1,
                0.9787659049034119
            ],
            "min" : [
                -0.987053394317627,
                -1.0004138946533203,
                -0.9898214936256409
            ],
            "type" : "VEC3"
        },
        {
            "bufferView" : 10,
            "componentType" : 5126,
            "count" : 1796,
            "type" : "VEC3"
        },
        {
            "bufferView" : 11,
            "componentType" : 5126,
            "count" : 1796,
            "type" : "VEC2"
        },
        {
            "bufferView" : 12,
            "componentType" : 5123,
            "count" : 2568,
            "type" : "SCALAR"
        }
    ],
    "bufferViews" : [
        {
            "buffer" : 0,
            "byteLength" : 48,
            "byteOffset" : 0
        },
        {
            "buffer" : 0,
            "byteLength" : 48,
            "byteOffset" : 48
        },
        {
            "buffer" : 0,
            "byteLength" : 32,
            "byteOffset" : 96
        },
        {
            "buffer" : 0,
            "byteLength" : 12,
            "byteOffset" : 128
        },
        {
            "buffer" : 0,
            "byteLength" : 218843,
            "byteOffset" : 140
        },
        {
            "buffer" : 0,
            "byteLength" : 62112,
            "byteOffset" : 218984
        },
        {
            "buffer" : 0,
            "byteLength" : 62112,
            "byteOffset" : 281096
        },
        {
            "buffer" : 0,
            "byteLength" : 41408,
            "byteOffset" : 343208
        },
        {
            "buffer" : 0,
            "byteLength" : 16224,
            "byteOffset" : 384616
        },
        {
            "buffer" : 0,
            "byteLength" : 21552,
            "byteOffset" : 400840
        },
        {
            "buffer" : 0,
            "byteLength" : 21552,
            "byteOffset" : 422392
        },
        {
            "buffer" : 0,
            "byteLength" : 14368,
            "byteOffset" : 443944
        },
        {
            "buffer" : 0,
            "byteLength" : 5136,
            "byteOffset" : 458312
        }
    ],
    "samplers" : [
        {
            "magFilter" : 9729,
            "minFilter" : 9987,
            "wrapS" : 33071,
            "wrapT" : 33071
        }
    ],
    "buffers" : [
        {
            "byteLength" : 463448,
            "uri" : "data:application/octet-stream;base64,"
        }
    ]
}
