{
    "asset" : {
        "generator" : "Khronos glTF Blender I/O v1.8.19",
        "version" : "2.0"
    },
    "scene" : 0,
    "scenes" : [
        {
            "name" : "Scene",
            "nodes" : [
                0
            ]
        }
    ],
    "nodes" : [
        {
            "mesh" : 0,
            "name" : "Torus",
            "scale" : [
                0.04064656421542168,
                0.04064656421542168,
                0.04064656421542168
            ]
        }
    ],
    "meshes" : [
        {
            "name" : "Torus",
            "primitives" : [
                {
                    "attributes" : {
                        "POSITION" : 0,
                        "NORMAL" : 1,
                        "TEXCOORD_0" : 2
                    },
                    "indices" : 3
                }
            ]
        }
    ],
    "accessors" : [
        {
            "bufferView" : 0,
            "componentType" : 5126,
            "count" : 1676,
            "max" : [
                1.470016598701477,
                0.25,
                1.2310097217559814
            ],
            "min" : [
                -5.136537075042725,
                -0.25,
                -1.2310097217559814
            ],
            "type" : "VEC3"
        },
        {
            "bufferView" : 1,
            "componentType" : 5126,
            "count" : 1676,
            "type" : "VEC3"
        },
        {
            "bufferView" : 2,
            "componentType" : 5126,
            "count" : 1676,
            "type" : "VEC2"
        },
        {
            "bufferView" : 3,
            "componentType" : 5123,
            "count" : 2592,
            "type" : "SCALAR"
        }
    ],
    "bufferViews" : [
        {
            "buffer" : 0,
            "byteLength" : 20112,
            "byteOffset" : 0
        },
        {
            "buffer" : 0,
            "byteLength" : 20112,
            "byteOffset" : 20112
        },
        {
            "buffer" : 0,
            "byteLength" : 13408,
            "byteOffset" : 40224
        },
        {
            "buffer" : 0,
            "byteLength" : 5184,
            "byteOffset" : 53632
        }
    ],
    "buffers" : [
        {
            "byteLength" : 58816,
            "uri" : "data:application/octet-stream;base64,"
        }
    ]
}
