{
	"asset":{
		"generator":"Khronos glTF Blender I/O v3.6.28",
		"version":"2.0"
	},
	"extensionsUsed":[
		"KHR_materials_unlit"
	],
	"scene":0,
	"scenes":[
		{
			"name":"Scene",
			"nodes":[
				0,
				1,
				2,
				3,
				4,
				5,
				6,
				7,
				8,
				9,
				10,
				11
			]
		}
	],
	"nodes":[
		{
			"mesh":0,
			"name":"Cube",
			"rotation":[
				0,
				0.3406756818294525,
				0,
				0.9401808977127075
			],
			"scale":[
				1,
				1.6825486421585083,
				1
			],
			"translation":[
				-5.963405609130859,
				1.650635004043579,
				-3.024404764175415
			]
		},
		{
			"camera":0,
			"name":"Camera",
			"rotation":[
				0,
				0.3826834559440613,
				0,
				0.9238795638084412
			],
			"translation":[
				4.867981433868408,
				1.0471258163452148,
				4.518535614013672
			]
		},
		{
			"mesh":1,
			"name":"Floor",
			"scale":[
				87.82363891601562,
				87.82363891601562,
				87.82363891601562
			]
		},
		{
			"mesh":2,
			"name":"Wall",
			"rotation":[
				0,
				-0.7071068286895752,
				-0.7071068286895752,
				0
			],
			"scale":[
				9.972722053527832,
				1,
				2.2918131351470947
			],
			"translation":[
				-0.5635718703269958,
				2.2190651893615723,
				-7.192504405975342
			]
		},
		{
			"mesh":3,
			"name":"Ceiling",
			"scale":[
				87.82363891601562,
				87.82363891601562,
				87.82363891601562
			],
			"translation":[
				0,
				4.446508407592773,
				0
			]
		},
		{
			"mesh":4,
			"name":"Cube.002",
			"rotation":[
				0,
				0.2958097755908966,
				0,
				0.9552468657493591
			],
			"translation":[
				-5.366905212402344,
				0.9152094125747681,
				5.096818923950195
			]
		},
		{
			"mesh":5,
			"name":"Cube.001",
			"rotation":[
				0,
				-0.17896199226379395,
				0,
				0.9838560223579407
			],
			"translation":[
				2.880955457687378,
				0.9152094125747681,
				-4.705178260803223
			]
		},
		{
			"mesh":6,
			"name":"Cube.003",
			"rotation":[
				0.7071068286895752,
				0,
				0,
				0.7071068286895752
			],
			"scale":[
				1,
				1.6825486421585083,
				1
			],
			"translation":[
				-3.295595645904541,
				1.0071873664855957,
				-4.049185276031494
			]
		},
		{
			"mesh":7,
			"name":"Wall.001",
			"rotation":[
				0,
				-0.7071068286895752,
				-0.7071068286895752,
				0
			],
			"scale":[
				9.972722053527832,
				1,
				2.2918131351470947
			],
			"translation":[
				-0.6135718822479248,
				2.2190651893615723,
				8.320735931396484
			]
		},
		{
			"mesh":8,
			"name":"Wall.002",
			"rotation":[
				-0.5,
				-0.5,
				-0.5,
				0.5
			],
			"scale":[
				8.073384284973145,
				1,
				2.2918131351470947
			],
			"translation":[
				-10.596296310424805,
				2.2190651893615723,
				0.8784980773925781
			]
		},
		{
			"mesh":9,
			"name":"Wall.003",
			"rotation":[
				-0.5,
				-0.5,
				-0.5,
				0.5
			],
			"scale":[
				5.062375545501709,
				1,
				2.2918131351470947
			],
			"translation":[
				8.801481246948242,
				2.2190651893615723,
				-5.475185394287109
			]
		},
		{
			"mesh":10,
			"name":"Wall.004",
			"rotation":[
				-0.5,
				-0.5,
				-0.5,
				0.5
			],
			"scale":[
				5.062375545501709,
				1,
				2.2918131351470947
			],
			"translation":[
				8.801481246948242,
				2.2190651893615723,
				7.448725700378418
			]
		}
	],
	"cameras":[
		{
			"name":"Camera",
			"perspective":{
				"aspectRatio":1.7777777777777777,
				"yfov":0.8626525991091963,
				"zfar":100,
				"znear":0.10000000149011612
			},
			"type":"perspective"
		}
	],
	"materials":[
		{
			"doubleSided":true,
			"extensions":{
				"KHR_materials_unlit":{}
			},
			"name":"Box",
			"pbrMetallicRoughness":{
				"baseColorTexture":{
					"index":0,
					"texCoord":0
				},
				"metallicFactor":0,
				"roughnessFactor":0.9
			}
		},
		{
			"doubleSided":true,
			"extensions":{
				"KHR_materials_unlit":{}
			},
			"name":"Floor",
			"pbrMetallicRoughness":{
				"baseColorTexture":{
					"index":1,
					"texCoord":0
				},
				"metallicFactor":0,
				"roughnessFactor":0.9
			}
		},
		{
			"doubleSided":true,
			"extensions":{
				"KHR_materials_unlit":{}
			},
			"name":"Wall",
			"pbrMetallicRoughness":{
				"baseColorTexture":{
					"index":2,
					"texCoord":0
				},
				"metallicFactor":0,
				"roughnessFactor":0.9
			}
		},
		{
			"doubleSided":true,
			"extensions":{
				"KHR_materials_unlit":{}
			},
			"name":"Floor.001",
			"pbrMetallicRoughness":{
				"baseColorTexture":{
					"index":3,
					"texCoord":0
				},
				"metallicFactor":0,
				"roughnessFactor":0.9
			}
		}
	],
	"meshes":[
		{
			"name":"Cube",
			"primitives":[
				{
					"attributes":{
						"POSITION":0,
						"NORMAL":1,
						"TEXCOORD_0":2
					},
					"indices":3,
					"material":0
				}
			]
		},
		{
			"name":"Plane",
			"primitives":[
				{
					"attributes":{
						"POSITION":4,
						"NORMAL":5,
						"TEXCOORD_0":6
					},
					"indices":7,
					"material":1
				}
			]
		},
		{
			"name":"Plane.006",
			"primitives":[
				{
					"attributes":{
						"POSITION":8,
						"NORMAL":9,
						"TEXCOORD_0":10
					},
					"indices":11,
					"material":2
				}
			]
		},
		{
			"name":"Plane.007",
			"primitives":[
				{
					"attributes":{
						"POSITION":12,
						"NORMAL":13,
						"TEXCOORD_0":14
					},
					"indices":7,
					"material":3
				}
			]
		},
		{
			"name":"Cube.002",
			"primitives":[
				{
					"attributes":{
						"POSITION":15,
						"NORMAL":16,
						"TEXCOORD_0":17
					},
					"indices":3,
					"material":0
				}
			]
		},
		{
			"name":"Cube.003",
			"primitives":[
				{
					"attributes":{
						"POSITION":18,
						"NORMAL":19,
						"TEXCOORD_0":20
					},
					"indices":3,
					"material":0
				}
			]
		},
		{
			"name":"Cube.004",
			"primitives":[
				{
					"attributes":{
						"POSITION":21,
						"NORMAL":22,
						"TEXCOORD_0":23
					},
					"indices":3,
					"material":0
				}
			]
		},
		{
			"name":"Plane.018",
			"primitives":[
				{
					"attributes":{
						"POSITION":24,
						"NORMAL":25,
						"TEXCOORD_0":26
					},
					"indices":11,
					"material":2
				}
			]
		},
		{
			"name":"Plane.019",
			"primitives":[
				{
					"attributes":{
						"POSITION":27,
						"NORMAL":28,
						"TEXCOORD_0":29
					},
					"indices":11,
					"material":2
				}
			]
		},
		{
			"name":"Plane.020",
			"primitives":[
				{
					"attributes":{
						"POSITION":30,
						"NORMAL":31,
						"TEXCOORD_0":32
					},
					"indices":11,
					"material":2
				}
			]
		},
		{
			"name":"Plane.021",
			"primitives":[
				{
					"attributes":{
						"POSITION":33,
						"NORMAL":34,
						"TEXCOORD_0":35
					},
					"indices":11,
					"material":2
				}
			]
		}
	],
	"textures":[
		{
			"sampler":0,
			"source":0
		},
		{
			"sampler":0,
			"source":1
		},
		{
			"sampler":0,
			"source":2
		},
		{
			"sampler":0,
			"source":1
		}
	],
	"images":[
		{
			"mimeType":"image/png",
			"name":"NewBoxTexture",
			"uri":"NewBoxTexture.png"
		},
		{
			"mimeType":"image/png",
			"name":"NewFloorTexture",
			"uri":"NewFloorTexture.png"
		},
		{
			"mimeType":"image/png",
			"name":"NewWallTexture",
			"uri":"NewWallTexture.png"
		}
	],
	"accessors":[
		{
			"bufferView":0,
			"componentType":5126,
			"count":96,
			"max":[
				1,
				1,
				1
			],
			"min":[
				-1,
				-1,
				-1
			],
			"type":"VEC3"
		},
		{
			"bufferView":1,
			"componentType":5126,
			"count":96,
			"type":"VEC3"
		},
		{
			"bufferView":2,
			"componentType":5126,
			"count":96,
			"type":"VEC2"
		},
		{
			"bufferView":3,
			"componentType":5123,
			"count":132,
			"type":"SCALAR"
		},
		{
			"bufferView":4,
			"componentType":5126,
			"count":4,
			"max":[
				0.5375851988792419,
				0,
				0.5375851988792419
			],
			"min":[
				-0.5375851988792419,
				0,
				-0.5375851988792419
			],
			"type":"VEC3"
		},
		{
			"bufferView":5,
			"componentType":5126,
			"count":4,
			"type":"VEC3"
		},
		{
			"bufferView":6,
			"componentType":5126,
			"count":4,
			"type":"VEC2"
		},
		{
			"bufferView":7,
			"componentType":5123,
			"count":6,
			"type":"SCALAR"
		},
		{
			"bufferView":8,
			"componentType":5126,
			"count":24,
			"max":[
				1,
				0.6198855042457581,
				1
			],
			"min":[
				-1,
				0,
				-1
			],
			"type":"VEC3"
		},
		{
			"bufferView":9,
			"componentType":5126,
			"count":24,
			"type":"VEC3"
		},
		{
			"bufferView":10,
			"componentType":5126,
			"count":24,
			"type":"VEC2"
		},
		{
			"bufferView":11,
			"componentType":5123,
			"count":36,
			"type":"SCALAR"
		},
		{
			"bufferView":12,
			"componentType":5126,
			"count":4,
			"max":[
				0.5375851988792419,
				0,
				0.5375851988792419
			],
			"min":[
				-0.5375851988792419,
				0,
				-0.5375851988792419
			],
			"type":"VEC3"
		},
		{
			"bufferView":13,
			"componentType":5126,
			"count":4,
			"type":"VEC3"
		},
		{
			"bufferView":14,
			"componentType":5126,
			"count":4,
			"type":"VEC2"
		},
		{
			"bufferView":15,
			"componentType":5126,
			"count":96,
			"max":[
				1,
				1,
				1
			],
			"min":[
				-1,
				-1,
				-1
			],
			"type":"VEC3"
		},
		{
			"bufferView":16,
			"componentType":5126,
			"count":96,
			"type":"VEC3"
		},
		{
			"bufferView":17,
			"componentType":5126,
			"count":96,
			"type":"VEC2"
		},
		{
			"bufferView":18,
			"componentType":5126,
			"count":96,
			"max":[
				1,
				1,
				1
			],
			"min":[
				-1,
				-1,
				-1
			],
			"type":"VEC3"
		},
		{
			"bufferView":19,
			"componentType":5126,
			"count":96,
			"type":"VEC3"
		},
		{
			"bufferView":20,
			"componentType":5126,
			"count":96,
			"type":"VEC2"
		},
		{
			"bufferView":21,
			"componentType":5126,
			"count":96,
			"max":[
				1,
				1,
				1
			],
			"min":[
				-1,
				-1,
				-1
			],
			"type":"VEC3"
		},
		{
			"bufferView":22,
			"componentType":5126,
			"count":96,
			"type":"VEC3"
		},
		{
			"bufferView":23,
			"componentType":5126,
			"count":96,
			"type":"VEC2"
		},
		{
			"bufferView":24,
			"componentType":5126,
			"count":24,
			"max":[
				1,
				0.6198855042457581,
				1
			],
			"min":[
				-1,
				0,
				-1
			],
			"type":"VEC3"
		},
		{
			"bufferView":25,
			"componentType":5126,
			"count":24,
			"type":"VEC3"
		},
		{
			"bufferView":26,
			"componentType":5126,
			"count":24,
			"type":"VEC2"
		},
		{
			"bufferView":27,
			"componentType":5126,
			"count":24,
			"max":[
				1,
				0.6198855042457581,
				1
			],
			"min":[
				-1,
				0,
				-1
			],
			"type":"VEC3"
		},
		{
			"bufferView":28,
			"componentType":5126,
			"count":24,
			"type":"VEC3"
		},
		{
			"bufferView":29,
			"componentType":5126,
			"count":24,
			"type":"VEC2"
		},
		{
			"bufferView":30,
			"componentType":5126,
			"count":24,
			"max":[
				1,
				0.6198855042457581,
				1
			],
			"min":[
				-1,
				0,
				-1
			],
			"type":"VEC3"
		},
		{
			"bufferView":31,
			"componentType":5126,
			"count":24,
			"type":"VEC3"
		},
		{
			"bufferView":32,
			"componentType":5126,
			"count":24,
			"type":"VEC2"
		},
		{
			"bufferView":33,
			"componentType":5126,
			"count":24,
			"max":[
				1,
				0.6198855042457581,
				1
			],
			"min":[
				-1,
				0,
				-1
			],
			"type":"VEC3"
		},
		{
			"bufferView":34,
			"componentType":5126,
			"count":24,
			"type":"VEC3"
		},
		{
			"bufferView":35,
			"componentType":5126,
			"count":24,
			"type":"VEC2"
		}
	],
	"bufferViews":[
		{
			"buffer":0,
			"byteLength":1152,
			"byteOffset":0,
			"target":34962
		},
		{
			"buffer":0,
			"byteLength":1152,
			"byteOffset":1152,
			"target":34962
		},
		{
			"buffer":0,
			"byteLength":768,
			"byteOffset":2304,
			"target":34962
		},
		{
			"buffer":0,
			"byteLength":264,
			"byteOffset":3072,
			"target":34963
		},
		{
			"buffer":0,
			"byteLength":48,
			"byteOffset":3336,
			"target":34962
		},
		{
			"buffer":0,
			"byteLength":48,
			"byteOffset":3384,
			"target":34962
		},
		{
			"buffer":0,
			"byteLength":32,
			"byteOffset":3432,
			"target":34962
		},
		{
			"buffer":0,
			"byteLength":12,
			"byteOffset":3464,
			"target":34963
		},
		{
			"buffer":0,
			"byteLength":288,
			"byteOffset":3476,
			"target":34962
		},
		{
			"buffer":0,
			"byteLength":288,
			"byteOffset":3764,
			"target":34962
		},
		{
			"buffer":0,
			"byteLength":192,
			"byteOffset":4052,
			"target":34962
		},
		{
			"buffer":0,
			"byteLength":72,
			"byteOffset":4244,
			"target":34963
		},
		{
			"buffer":0,
			"byteLength":48,
			"byteOffset":4316,
			"target":34962
		},
		{
			"buffer":0,
			"byteLength":48,
			"byteOffset":4364,
			"target":34962
		},
		{
			"buffer":0,
			"byteLength":32,
			"byteOffset":4412,
			"target":34962
		},
		{
			"buffer":0,
			"byteLength":1152,
			"byteOffset":4444,
			"target":34962
		},
		{
			"buffer":0,
			"byteLength":1152,
			"byteOffset":5596,
			"target":34962
		},
		{
			"buffer":0,
			"byteLength":768,
			"byteOffset":6748,
			"target":34962
		},
		{
			"buffer":0,
			"byteLength":1152,
			"byteOffset":7516,
			"target":34962
		},
		{
			"buffer":0,
			"byteLength":1152,
			"byteOffset":8668,
			"target":34962
		},
		{
			"buffer":0,
			"byteLength":768,
			"byteOffset":9820,
			"target":34962
		},
		{
			"buffer":0,
			"byteLength":1152,
			"byteOffset":10588,
			"target":34962
		},
		{
			"buffer":0,
			"byteLength":1152,
			"byteOffset":11740,
			"target":34962
		},
		{
			"buffer":0,
			"byteLength":768,
			"byteOffset":12892,
			"target":34962
		},
		{
			"buffer":0,
			"byteLength":288,
			"byteOffset":13660,
			"target":34962
		},
		{
			"buffer":0,
			"byteLength":288,
			"byteOffset":13948,
			"target":34962
		},
		{
			"buffer":0,
			"byteLength":192,
			"byteOffset":14236,
			"target":34962
		},
		{
			"buffer":0,
			"byteLength":288,
			"byteOffset":14428,
			"target":34962
		},
		{
			"buffer":0,
			"byteLength":288,
			"byteOffset":14716,
			"target":34962
		},
		{
			"buffer":0,
			"byteLength":192,
			"byteOffset":15004,
			"target":34962
		},
		{
			"buffer":0,
			"byteLength":288,
			"byteOffset":15196,
			"target":34962
		},
		{
			"buffer":0,
			"byteLength":288,
			"byteOffset":15484,
			"target":34962
		},
		{
			"buffer":0,
			"byteLength":192,
			"byteOffset":15772,
			"target":34962
		},
		{
			"buffer":0,
			"byteLength":288,
			"byteOffset":15964,
			"target":34962
		},
		{
			"buffer":0,
			"byteLength":288,
			"byteOffset":16252,
			"target":34962
		},
		{
			"buffer":0,
			"byteLength":192,
			"byteOffset":16540,
			"target":34962
		}
	],
	"samplers":[
		{
			"magFilter":9729,
			"minFilter":9987
		}
	],
	"buffers":[
		{
			"byteLength":16732,
			"uri":"test2.bin"
		}
	]
}
